<svg width="108" height="21" viewBox="0 0 108 21" version="1.1" xmlns="http://www.w3.org/2000/svg" xmlns:xlink="http://www.w3.org/1999/xlink">
<g id="Canvas" fill="none">
<g id="Vector">
<path d="M 101.739 20.9348L 101.739 13.0774C 101.739 10.5261 101.619 8.79496 99.8319 8.79496C 98.9241 8.79496 98.1587 9.24105 97.5913 9.97827C 97.7611 10.6873 97.8261 11.5184 97.8261 12.4255C 97.8261 14.184 97.8543 16.4246 97.8261 18.6652C 97.8261 19.0346 97.7901 19.1191 98.017 19.3461L 99.3913 20.9348L 93.1304 20.9348L 93.1304 13.0774C 93.1304 10.4971 92.7697 8.79496 91.0111 8.79496C 90.1033 8.79496 89.7277 9.30601 89.2174 10.0432L 89.2174 18.6652C 89.2174 19.0346 89.197 19.1191 89.4522 19.3461L 90.7826 20.9348L 84.5217 20.9348L 84.5217 8.85131C 84.5217 8.48349 84.467 8.39818 84.24 8.14305L 82.9565 6.84783L 89.2174 6.84783L 89.2174 9.67462C 89.9264 7.68914 91.1246 6.45653 93.4216 6.45653C 95.5205 6.45653 96.9386 7.60383 97.5342 9.7881C 98.1869 7.91609 99.8883 6.45653 102.271 6.45653C 105.079 6.45653 106.435 8.51166 106.435 12.4255C 106.435 14.2975 106.463 16.4246 106.435 18.6652C 106.435 19.0346 106.438 19.1755 106.63 19.3461L 108 20.9348L 101.739 20.9348ZM 80.6087 18.5518C 80.6087 18.9211 80.4921 19.0346 80.748 19.2608L 82.1739 20.9348L 75.913 20.9348L 75.913 17.8044C 75.204 19.7335 73.5997 20.9348 71.5015 20.9348C 68.6935 20.9348 67.3043 18.8922 67.3043 15.0347C 67.3043 13.1635 67.2762 11.1217 67.3043 8.82392C 67.3043 8.45531 67.2183 8.37001 66.9913 8.14305L 65.7391 6.84783L 72 6.84783L 72 14.3828C 72 16.9067 72.2105 18.6089 73.7984 18.6089C 74.7063 18.6089 75.431 18.0415 75.913 17.3332L 75.913 8.85131C 75.913 8.4827 75.8121 8.3974 75.5851 8.14227L 74.3478 6.84783L 80.6087 6.84783L 80.6087 18.5518ZM 61.045 4.81828e-07C 61.379 4.18519e-07 61.7096 0.0658008 62.0182 0.193642C 62.3267 0.321483 62.6069 0.508859 62.843 0.745063C 63.0791 0.981268 63.2663 1.26167 63.3939 1.57025C 63.5216 1.87883 63.5872 2.20954 63.587 2.54348C 63.587 3.0466 63.4377 3.53842 63.1582 3.95673C 62.8786 4.37503 62.4813 4.70104 62.0165 4.8935C 61.5516 5.08596 61.0401 5.13624 60.5467 5.03797C 60.0533 4.93971 59.6001 4.69731 59.2444 4.34144C 58.8888 3.98557 58.6466 3.53222 58.5487 3.03873C 58.4507 2.54524 58.5013 2.03378 58.6941 1.56905C 58.8868 1.10432 59.2131 0.707186 59.6315 0.427893C 60.05 0.1486 60.5419 -0.00030913 61.045 4.81828e-07ZM 58.6957 20.9348L 58.6957 8.85131C 58.6957 8.48349 58.8271 8.39818 58.6002 8.14305L 57.1304 6.84783L 63.3913 6.84783L 63.3913 18.6652C 63.3913 19.0346 63.3835 19.1958 63.5791 19.3696L 64.9565 20.9348L 58.6957 20.9348ZM 50.087 8.96557C 49.6902 8.45531 48.9772 8.0867 48.2118 8.0867C 46.6803 8.0867 45.205 9.47583 45.205 13.5884C 45.205 17.4467 46.4815 18.8077 48.0694 18.8077C 48.7792 18.8077 49.5196 18.4664 50.087 17.7292L 50.087 8.96557ZM 54.7826 18.5807C 54.7826 18.9485 54.7623 19.0346 55.0174 19.2616L 56.3478 20.9348L 50.087 20.9348L 50.087 18.0415C 49.2363 19.9988 47.7008 20.9348 45.8859 20.9348C 42.6522 20.9348 40.3043 18.3819 40.3043 13.7309C 40.3043 9.36236 42.851 6.44166 46.3962 6.44166C 48.24 6.44166 49.4632 7.32053 50.087 8.71044L 50.087 2.83931C 50.087 2.4707 50.0267 2.35644 49.7716 2.13026L 48.5217 0.825653L 54.7826 0.0313048L 54.7826 18.5807ZM 34.3565 12.3261C 34.3855 11.9575 34.3855 11.8017 34.3855 11.6883C 34.3855 7.97322 33.6522 7.43479 32.4783 7.43479C 31.3043 7.43479 30.2447 8.21349 30.1876 12.3261L 34.3573 12.3261L 34.3565 12.3261ZM 30.1876 13.1087C 30.1876 16.7956 32.0596 18.2974 34.2438 18.2974C 35.9452 18.2974 37.6192 17.5594 38.5552 15.6874L 38.6116 15.6874C 37.8743 19.2608 35.6611 20.9348 32.3429 20.9348C 28.7695 20.9348 25.3941 18.7787 25.3941 13.7872C 25.3941 8.53983 28.7413 6.44166 32.5135 6.44166C 35.5203 6.44166 38.725 7.85896 38.725 12.4255C 38.725 12.5108 38.725 12.7683 38.6969 13.1087L 30.1876 13.1087ZM 24.6522 20.9348L 15.2609 20.9348L 17.1313 18.864C 17.197 18.7983 17.2174 18.5518 17.2174 18.1831L 17.2174 5.28261L 11.0614 20.9348L 4.36774 6.35635C 4.19791 5.98696 4.0547 5.50566 3.91304 5.10809L 3.91304 15.9418C 3.91304 16.3957 3.88565 16.4528 4.19791 16.8778L 7.04348 20.9348L 0 20.9348L 2.8487 16.8785C 3.16096 16.4536 3.13043 16.3964 3.13043 15.9425L 3.13043 4.71131C 3.13043 4.22844 3.20478 4.17131 2.97783 3.88879L 0.782609 0.586957L 7.43087 0.586957L 13.187 13.3435L 18.1878 0.586957L 24.6522 0.586957L 22.9304 2.73913C 22.6753 2.99426 22.6957 3.20792 22.6957 3.6047L 22.6957 18.1839C 22.6957 18.5518 22.6996 18.7709 22.8037 18.8648L 24.6522 20.9348Z" fill="black"/>
</g>
</g>
</svg>

